<?xml version='1.0' encoding='utf-8'?>
<!DOCTYPE svg PUBLIC '-//W3C//DTD SVG 1.1//EN' 'http://www.w3.org/Graphics/SVG/1.1/DTD/svg11.dtd'>
<svg version="1.1" xmlns="http://www.w3.org/2000/svg" viewBox="0 0 512 512" xmlns:xlink="http://www.w3.org/1999/xlink" enable-background="new 0 0 512 512">
  <g>
    <g>
      <g>
        <path fill="#70b37d" d="m332,305.5c-8.8-7.9-22.4-7.1-30.3,1.8l-58.6,65.8-33.1-27.9c-9-7.6-22.6-6.5-30.2,2.6-7.6,9-6.5,22.6 2.6,30.2l49.1,41.4c0,0 0,0 0.1,0 4,3.4 8.9,5 13.8,5 5.9,0 11.8-2.4 16-7.2l72.5-81.4c7.8-8.9 7-22.4-1.9-30.3z"/>
        <path fill="#fff" d="m407.1,310.5h-4.6c-17.9-63.1-76.4-109.5-145.5-109.5-69.1,0-127.6,46.4-145.5,109.6h-4.6c-29.8,0-54.1-24.1-54.1-53.7 0-13.4 5.1-26.3 14.3-36.2 5.3-5.8 6.9-14.1 4-21.3-5-12.6-7.5-25.8-7.5-39.1 0-59.2 48.5-107.4 108.1-107.4 43.8,0 83,26 99.8,66.3 2.4,5.8 7.4,10.2 13.4,11.8 6.1,1.7 12.6,0.4 17.6-3.3 11-8.2 24-12.5 37.6-12.5 34.6,0 62.7,27.9 62.7,62.3-3.8,22.6 15.8,27 15.8,27 24.7,5.3 42.5,27.4 42.5,52.4 0.1,29.5-24.2,53.6-54,53.6zm-150.1,150.7c-60.9,0-110.4-49.2-110.4-109.7 0-60.5 49.5-109.7 110.4-109.7 60.9,0 110.4,49.2 110.4,109.7 0,60.5-49.5,109.7-110.4,109.7zm245-204.4c0-38.5-23.8-72.9-58.6-87.3-4-53.2-48.8-95.3-103.3-95.3-14.4,0-28.4,2.9-41.4,8.6-26.7-43.6-74.4-70.8-127-70.8-82.1,0-148.9,66.5-148.9,148.2-1.06581e-14,14.4 2.1,28.7 6.4,42.6-11.2,15.8-17.2,34.6-17.2,54 0,51.7 42,93.9 93.8,94.5 0,0 0,0.1 0,0.1 0,83 67.8,150.5 151.2,150.5 83.4,0 151.2-67.5 151.2-150.5 0,0 0-0.1 0-0.1 51.8-0.6 93.8-42.7 93.8-94.5z"/>
      </g>
    </g>
  </g>
</svg>
