<?xml version='1.0' encoding='utf-8'?>
<!DOCTYPE svg PUBLIC '-//W3C//DTD SVG 1.1//EN' 'http://www.w3.org/Graphics/SVG/1.1/DTD/svg11.dtd'>
<svg version="1.1" xmlns="http://www.w3.org/2000/svg" viewBox="0 0 512 512" xmlns:xlink="http://www.w3.org/1999/xlink" enable-background="new 0 0 512 512">
  <g>
    <g>
      <path fill="#fff" d="m375.1,432.2c-14.7,0-28.8-4.5-41.8-13.2-3.4-2.3-14.4-5.7-22.9,0-29.3,19.9-66.1,16.9-93-7.4-7.8-7-19.5-7-27.3,0-15,13.5-32.7,20.7-51.2,20.7-47.4,0-86-46.5-86-103.7 0-41.6 20.6-79 52.5-95.4 8.2-4.2 12.5-13.3 10.7-22.3-1.8-8.7-2.7-17-2.7-25.2 0-57.2 38.6-103.7 86-103.7 32.1,0 60.8,21.7 76.3,56.1 6,13.5 23.9,12.5 29,9.6 11.8-6.8 24.3-10.3 37.1-10.3 46.3,0 84.9,45.5 85.9,101.4 0.1,4.9 2,9.7 5.3,13.3 17.9,19.7 28.2,47.6 28.2,76.6-5.68434e-14,56.9-38.6,103.5-86.1,103.5zm93.1-202c-4.8-75.7-59.1-133.9-126.4-133.9-13.1,0-25.9,2.3-38.2,6.7-23.6-38.7-62-62-104.3-62-70,0-126.9,64.9-126.9,144.6 0,6.2 0.4,12.5 1.1,18.9-37.7,25.8-61.5,72.9-61.5,123.9 0,79.8 56.9,144.6 126.9,144.6 23.2,0 45.3-7 64.9-20.4 19.6,13.4 41.7,20.4 64.9,20.4 18.4,0 36.6-4.6 53.2-13.4 16.7,8.8 34.8,13.4 53.2,13.4 70,0 126.9-64.9 126.9-144.6 0-36.8-12-71.4-33.8-98.2z"/>
      <path fill="#C23B22" d="m285.9,288.9l56.8-56.8c8-8 8-20.9 0-28.9-8-8-20.9-8-28.9,0l-56.8,56.8-56.8-56.8c-8-8-20.9-8-28.9,0-8,8-8,20.9 0,28.9l56.8,56.8-56.8,56.8c-8,8-8,20.9 0,28.9 8,8 20.9,8 28.9,0l56.8-56.8 56.8,56.8c8,8 20.9,8 28.9,0 8-8 8-20.9 0-28.9l-56.8-56.8z"/>
    </g>
  </g>
</svg>
