<?xml version='1.0' encoding='utf-8'?>
<!DOCTYPE svg PUBLIC '-//W3C//DTD SVG 1.1//EN' 'http://www.w3.org/Graphics/SVG/1.1/DTD/svg11.dtd'>
<svg version="1.1" xmlns="http://www.w3.org/2000/svg" viewBox="0 0 512 512" xmlns:xlink="http://www.w3.org/1999/xlink" enable-background="new 0 0 512 512">
  <g>
    <g>
      <path fill="#fdfd96" d="m236.7,298.3v54.1c0,11.3 9.1,20.4 20.4,20.4 11.3,0 20.4-9.1 20.4-20.4v-54.1c0-11.3-9.1-20.4-20.4-20.4-11.3-5.68434e-14-20.4,9.1-20.4,20.4z"/>
      <path fill="#fff" d="m275.8,165.4c-8.1-14.8-29.4-14.8-37.5,0l-74.5,136.5h-62.5c-27.3-1.5-48.9-24.7-48.3-52.3 0.2-10.4 3.5-20.3 9.6-28.7 7.1-9.9 9.5-22.4 6.5-34.2-2.2-8.6-3.3-17.6-3.3-26.6 0-59.1 48.1-107.1 107.1-107.1 36.9,0 70.8,18.7 90.6,49.9 11,17.4 33.2,23.9 51.9,15.3 7.9-3.7 16.4-5.5 25.2-5.5 44.3,0 58.6,40 59.8,54.9 1.4,15.9 11.8,29.6 26.9,35.1 20.2,7.3 33.7,26.7 33.7,48.2 0,28.3-23,51.2-51.2,51.2h-59.4l-74.6-136.7zm-151.9,295.6l133.2-244.1 133.2,244.1h-266.4-2.84217e-14zm378.1-210.2c0-39.9-25.3-73.9-60.8-86.8-4.4-51.8-47.8-92.4-100.7-92.4-15.1,0-29.5,3.3-42.4,9.3-26.3-41.5-72.5-69-125.3-69-81.8,0-148.2,66.3-148.2,148.2 0,12.7 1.6,25 4.6,36.8-10.8,15.1-17.2,33.8-17.2,53.9 0,50 39.8,90.7 89.4,92.2h40.1l-69.5,127.4c-7.8,14.2 2.5,31.6 18.7,31.6h332.8c16.2,0 26.5-17.3 18.7-31.6l-69.5-127.4h37c51,0.1 92.3-41.3 92.3-92.2z"/>
      <path fill="#fdfd96" d="m257.1,397.4c-11.9,0-21.6,9.7-21.6,21.6 0,11.9 9.7,21.6 21.6,21.6 11.9,0 21.6-9.7 21.6-21.6-5.68434e-14-12-9.7-21.6-21.6-21.6z"/>
    </g>
  </g>
</svg>
