<?xml version='1.0' encoding='utf-8'?>
<!DOCTYPE svg PUBLIC '-//W3C//DTD SVG 1.1//EN' 'http://www.w3.org/Graphics/SVG/1.1/DTD/svg11.dtd'>
<svg version="1.1" xmlns="http://www.w3.org/2000/svg" viewBox="0 0 512 512" xmlns:xlink="http://www.w3.org/1999/xlink" enable-background="new 0 0 512 512">
  <g>
    <g>
      <g>
        <path fill="#C23B22" d="m293.1,317.2h-21.1v-49.4c0-11.3-9.1-20.4-20.4-20.4-11.3,0-20.4,9.1-20.4,20.4v69.8c0,11.3 9.1,20.4 20.4,20.4h41.5c11.3,0 20.4-9.1 20.4-20.4 0-11.3-9.1-20.4-20.4-20.4z"/>
        <path fill="#fff" d="m416.2,337.7c0-0.1 0-0.1 0,0 0-90.7-73.9-164.5-164.6-164.5-89.7,0-162.8,72-164.6,161.1-20-8.9-34.2-30.8-34.2-56.4 0-15.5 5.3-30.3 14.9-41.6 4.7-5.6 6.1-13.2 3.6-20.1-5.1-14.2-7.7-29-7.7-44 0-65.8 48.5-119.4 108.1-119.4 43.6,0 82.4,28.8 99.6,73.1 7.5,19.3 26.9,12.7 32,8.5 10.8-8.8 23.6-13.5 36.9-13.5 34.6,0 61.3,31.4 62.7,70 0.6,16.7 5.6,25.3 15.4,27.6 24.9,5.9 42.9,30.8 42.9,59.3 1.13687e-13,30.1-19.5,55-45,59.9zm-164.6,123.5c-68.3,0-123.8-55.4-123.8-123.6 0-68.1 55.5-123.6 123.8-123.6 68.3,0 123.8,55.4 123.8,123.6 0,68.1-55.5,123.6-123.8,123.6zm250.4-183.3c0-41.2-23.8-78.1-58.5-93.7-3.3-58-48.4-104.1-103.4-104.1-14.3,0-28.2,3.1-41,9.1-26.7-47.6-74.5-77.2-127.4-77.2-82.1,0-148.9,71.9-148.9,160.2-1.06581e-14,16 2.2,31.8 6.7,47.2-11.4,17-17.5,37.4-17.5,58.5 0,50.5 34.7,92.5 80,100.2 18.1,71.1 82.8,123.9 159.6,123.9 76.4,0 140.7-52.2 159.3-122.7 50.6-2.1 91.1-46.8 91.1-101.4z"/>
      </g>
    </g>
  </g>
</svg>
