<?xml version="1.0" encoding="utf-8"?>
<svg version="1.1" xmlns="http://www.w3.org/2000/svg" xmlns:xlink="http://www.w3.org/1999/xlink" width="120px" height="120px" x="0px" y="0px" viewBox="0 0 1000 1000"  xml:space="preserve">
<g><path fill="#C23B22" stroke="#ffffff" stroke-width="20px" d="M651.8,348.1c-18-18-47.1-18-65.1,0l-86.8,86.8l-86.8-86.8c-18-18-47.1-18-65.1,0c-18,18-18,47.1,0,65.1l86.8,86.8l-86.7,86.7c-18,18-18,47.1,0,65.1c18,18,47.1,18,65.1,0l86.7-86.7l86.7,86.7c18,18,47.1,18,65.1,0c18-18,18-47.1,0-65.1L565,499.9l86.8-86.8C669.8,395.2,669.8,366,651.8,348.1z M500,10C229.4,10,10,229.4,10,500c0,270.6,219.4,490,490,490s490-219.4,490-490C990,229.4,770.6,10,500,10z M500,898.1c-219.9,0-398.1-178.2-398.1-398.1c0-219.9,178.2-398.1,398.1-398.1c219.9,0,398.1,178.2,398.1,398.1C898.1,719.9,719.9,898.1,500,898.1z"/></g>
</svg>
