<?xml version="1.0" encoding="utf-8"?>
<svg version="1.1" xmlns="http://www.w3.org/2000/svg" xmlns:xlink="http://www.w3.org/1999/xlink" x="0px" y="0px" viewBox="0 0 1000 1000" xml:space="preserve" width="120px" height="120px">
<g><path fill="#70b37d" stroke="#ffffff" stroke-width="20px" d="M500,10c66.6,0,130.1,12.9,190.5,38.8C751,74.7,803,109.5,846.8,153.2c43.7,43.7,78.5,95.8,104.4,156.3C977.1,369.9,990,433.4,990,500s-12.9,130.1-38.8,190.5S890.5,803,846.8,846.8S751,925.3,690.5,951.2S566.6,990,500,990s-130.1-12.9-190.5-38.8C249,925.3,197,890.5,153.2,846.8C109.5,803,74.7,751,48.8,690.5C22.9,630.1,10,566.6,10,500c0-66.6,12.9-130.1,38.8-190.5C74.7,249,109.5,197,153.2,153.2C197,109.5,249,74.7,309.5,48.8C369.9,22.9,433.4,10,500,10z M500,99.1c-54.3,0-106.2,10.6-155.7,31.9c-49.5,21.2-92.2,49.7-127.9,85.4s-64.2,78.4-85.4,127.9C109.7,393.8,99.1,445.7,99.1,500s10.6,106.2,31.9,155.7c21.2,49.5,49.7,92.2,85.4,127.9s78.4,64.2,127.9,85.4c49.5,21.2,101.4,31.9,155.7,31.9s106.2-10.6,155.7-31.9c49.5-21.2,92.2-49.7,127.9-85.4c35.7-35.7,64.2-78.4,85.4-127.9c21.2-49.5,31.9-101.4,31.9-155.7c0-54.3-10.6-106.2-31.9-155.7c-21.2-49.5-49.7-92.2-85.4-127.9s-78.4-64.2-127.9-85.4C606.2,109.7,554.3,99.1,500,99.1L500,99.1z M650,366c12.3,0,22.8,4.4,31.5,13.1s13.1,19.2,13.1,31.5c0,12.3-4.4,22.9-13.2,31.7l-189,189c-8.6,8.6-19,12.9-31.3,12.9c-12.5,0-23.1-4.3-31.7-12.9l-94.7-94.3c-8.6-8.6-12.9-19.1-12.9-31.7c0-12.3,4.4-22.8,13.1-31.5c8.7-8.7,19.2-13.1,31.5-13.1c12.3,0,22.9,4.4,31.7,13.2l63,63l157.3-157.6C627.1,370.4,637.7,366,650,366L650,366z"/></g>
</svg>
