<?xml version="1.0" encoding="iso-8859-1"?>
<!-- Generator: Adobe Illustrator 19.0.0, SVG Export Plug-In . SVG Version: 6.00 Build 0)  -->
<svg version="1.1" id="Layer_1" xmlns="http://www.w3.org/2000/svg" xmlns:xlink="http://www.w3.org/1999/xlink" x="0px" y="0px"
	 viewBox="0 0 426.667 426.667" style="enable-background:new 0 0 426.667 426.667;" xml:space="preserve">
<g>
	<path style="fill:#50C8EF;" d="M213.333,0C95.509,0,0,95.509,0,213.333c0,117.815,95.509,213.333,213.333,213.333
		c117.815,0,213.333-95.518,213.333-213.333C426.667,95.509,331.149,0,213.333,0z M213.333,372.527
		c-87.778,0-159.198-71.411-159.198-159.194S125.555,54.14,213.333,54.14s159.198,71.415,159.198,159.194
		S301.111,372.527,213.333,372.527z"/>
	<polygon style="fill:#50C8EF;" points="294.4,238.933 187.733,238.933 187.733,98.133 238.933,98.133 238.933,187.733 
		294.4,187.733 	"/>
</g>
<g>
</g>
<g>
</g>
<g>
</g>
<g>
</g>
<g>
</g>
<g>
</g>
<g>
</g>
<g>
</g>
<g>
</g>
<g>
</g>
<g>
</g>
<g>
</g>
<g>
</g>
<g>
</g>
<g>
</g>
</svg>
