<?xml version="1.0" encoding="iso-8859-1"?>
<!-- Generator: Adobe Illustrator 19.0.0, SVG Export Plug-In . SVG Version: 6.00 Build 0)  -->
<svg version="1.1" id="Layer_1" xmlns="http://www.w3.org/2000/svg" xmlns:xlink="http://www.w3.org/1999/xlink" x="0px" y="0px"
	 viewBox="0 0 426.667 426.667" style="enable-background:new 0 0 426.667 426.667;" xml:space="preserve">
<path style="fill:#50C8EF;" d="M425.318,237.116c0.866-7.817,1.348-15.74,1.348-23.782s-0.482-15.966-1.348-23.774
	c-19.255,0.427-37.321-11.682-43.584-30.942c-6.255-19.26,1.242-39.676,17.071-50.641c-7.893-13.867-17.254-26.782-27.942-38.485
	c-15.326,11.665-37.069,12.493-53.453,0.593c-16.388-11.908-22.315-32.832-15.949-51.017c-14.31-6.498-29.431-11.524-45.218-14.75
	c-5.53,18.483-22.639,31.949-42.91,31.949c-20.275,0-37.38-13.466-42.91-31.949c-15.787,3.226-30.908,8.252-45.218,14.75
	c6.357,18.185,0.431,39.108-15.953,51.017C92.86,81.993,71.125,81.161,55.804,69.491C45.111,81.19,35.755,94.11,27.861,107.977
	c15.825,10.974,23.326,31.381,17.067,50.641c-6.259,19.268-24.324,31.369-43.575,30.942C0.486,197.367,0,205.291,0,213.333
	s0.486,15.966,1.353,23.782c19.251-0.427,37.316,11.674,43.575,30.933c6.259,19.268-1.242,39.676-17.067,50.641
	c7.893,13.867,17.25,26.782,27.942,38.485c15.326-11.657,37.069-12.493,53.449-0.585c16.388,11.9,22.31,32.823,15.949,51.008
	c14.31,6.498,29.431,11.524,45.222,14.75c5.53-18.475,22.639-31.94,42.91-31.94s37.38,13.466,42.906,31.94
	c15.787-3.226,30.908-8.243,45.218-14.741c-6.357-18.185-0.427-39.117,15.957-51.025c16.388-11.9,38.123-11.076,53.449,0.593
	c10.688-11.691,20.045-24.61,27.942-38.477c-15.825-10.974-23.326-31.39-17.071-50.65
	C387.998,248.794,406.063,236.685,425.318,237.116z M213.333,288c-41.233,0-74.667-33.434-74.667-74.667
	s33.434-74.667,74.667-74.667c41.237,0,74.667,33.434,74.667,74.667S254.571,288,213.333,288z"/>
<g>
</g>
<g>
</g>
<g>
</g>
<g>
</g>
<g>
</g>
<g>
</g>
<g>
</g>
<g>
</g>
<g>
</g>
<g>
</g>
<g>
</g>
<g>
</g>
<g>
</g>
<g>
</g>
<g>
</g>
</svg>
